<svg id="Layer_1" data-name="Layer 1" xmlns="http://www.w3.org/2000/svg" viewBox="0 0 979.9 979.5"><path d="M950.9,309.3C899.2,188.8,811.4,101.2,690,49.4a483.62,483.62,0,0,0-381,0C188.5,101.1,100.3,188.6,48.6,309.3,22.6,369.7,10,433,10,499.5S22.6,629.8,48.6,690.3C100.4,811,188.6,899,309,950.7a483.38,483.38,0,0,0,380.9,0c121.5-51.8,209.3-140,260.9-260.4a479.72,479.72,0,0,0,39.1-190.8A474.7,474.7,0,0,0,950.9,309.3ZM872.7,715.9c-38.5,66-91.2,118.3-157.5,157-66,38.5-138.2,57.9-215.9,57.9-58.4,0-114.1-11.3-167.2-34.3s-98.9-53.3-137.2-91.6-68.8-84.6-91.6-137.7C80.6,614.3,69.5,557.9,69.5,499.5q0-116.55,57.3-215.4c38.4-66,91.1-118.4,157-157S421.5,69.2,499.2,69.2s150,19.4,215.9,57.9q99.6,58.05,157.5,157t57.9,215.4C930.5,577.2,911.4,649.6,872.7,715.9Z" transform="translate(-10 -10.3)"/><path d="M530.3,495.2V217.6c0-16.6-14.5-30-31.1-30-15.5,0-29.5,13.4-29.5,30V499.4c0,.5,1.1,2.7,1.1,4.3-1.1,9.6,1.6,17.7,8,24.1L639,688c10.7,10.7,30.5,10.7,41.3,0,12.3-12.3,11.5-30.2,0-41.8Z" transform="translate(-10 -10.3)"/></svg>