<svg id="Layer_1" data-name="Layer 1" xmlns="http://www.w3.org/2000/svg" viewBox="0 0 725.58 979.99"><path d="M457.23,10.44C348.51,26.71,257.1,83.69,198.46,172c-43.62,65.53-64.07,138.36-60.94,217,4.59,112.07,56.35,246.67,146.08,380.23,63.23,94.12,144.62,183.44,194.5,213.49,20.66,12.31,32.14,9.81,63.65-13.77,22.33-16.7,69.7-64.07,97.25-96.83,105-126,179.69-264,209.53-387.12,24.83-102.88,17.32-191.16-23.16-271.92C774.45,111,681.79,39.45,569.51,15.24c-16.28-3.55-29-4.59-63.23-5C482.69,9.81,460.78,10,457.23,10.44Zm86.61,43.4c75.34,10,139.2,42.78,190.74,97.67,78.67,83.48,103.72,196.79,72,326.6-29.84,122.5-113.11,269.21-223.72,394.42-25.25,28.8-65.11,67.2-75.34,72.62-7.51,4-7.51,4-15.44,0-10.43-5.63-70.12-65.32-94.75-94.95-59.06-71.37-110.4-148.8-146.71-221.42C188.22,504.19,166.73,394,187,301.14c25.46-117.7,114-209.73,230.6-239.79C457.86,50.92,502.1,48.42,543.84,53.84Z" transform="translate(-137.21 -10)"/><path d="M465.58,204.31c-61.35,13.36-113.11,63-130.85,125.42-6.47,23.37-6.47,59.69,0,83.06,10.64,37.15,31.93,69.08,61.56,92.24C447.84,545.31,515,553,572,524.86A180.79,180.79,0,0,0,665.3,412.58c6.47-23,6.47-59.68,0-82.64-18.16-63.86-72.83-115-134.82-126.47C514,200.34,481.23,200.76,465.58,204.31Zm77.22,45.91c31.72,10.64,57.18,32.14,71,60.52,10,20.45,13.56,35.9,13.56,60.52,0,38-11.48,67-36.31,91.82-50.5,50.29-139.82,48-187.19-5-11.89-13.36-23.37-35.06-28-53.42-4-16.07-4-50.71,0-66.78,12.52-49.25,53.22-85.77,104.34-93.7C496.26,241.67,526.31,244.59,542.8,250.22Z" transform="translate(-137.21 -10)"/></svg>