<svg  data-name="Layer 1" xmlns="http://www.w3.org/2000/svg" viewBox="0 0 20.82 16.17"><g id="Camada_2" data-name="Camada 2"><g id="Camada_1-2" data-name="Camada 1-2"><path d="M21.88,0H4.94A1.94,1.94,0,0,0,3,1.94H3V14.23a1.94,1.94,0,0,0,1.94,1.94H21.88a1.94,1.94,0,0,0,1.94-1.94h0V1.94A1.94,1.94,0,0,0,21.88,0ZM4,3.73H22.81V6.09H4ZM4.94,1H21.88a.94.94,0,0,1,.94.94h0v.79H4V1.94A.94.94,0,0,1,4.94,1ZM21.88,15.17H4.94A.94.94,0,0,1,4,14.23H4V7.09H22.81v7.13a.94.94,0,0,1-.93.95Z" transform="translate(-3 0)"/><path d="M19.43,9.79a1.93,1.93,0,0,0-1.44.65,1.94,1.94,0,1,0-.17,2.74L18,13a1.93,1.93,0,1,0,2.87-2.58,1.9,1.9,0,0,0-1.43-.64Zm-2.87,2.87a.94.94,0,1,1,.94-.94.94.94,0,0,1-.94.94Zm2.87,0a.94.94,0,1,1,.94-.94.94.94,0,0,1-.94.94Z" transform="translate(-3 0)"/></g></g></svg>