<svg data-name="Layer 1" xmlns="http://www.w3.org/2000/svg" viewBox="0 0 29.92 28">
<g id="Layer_25" data-name="Layer 25">
<path d="M24,22a1,1,0,0,1-.64-.23L18.84,18H17A8,8,0,0,1,17,2h6a8,8,0,0,1,2,15.74V21a1,1,0,0,1-.58.91A1,1,0,0,1,24,22ZM17,4a6,6,0,0,0,0,12h2.2a1,1,0,0,1,.64.23L23,18.86V16.92a1,1,0,0,1,.86-1A6,6,0,0,0,23,4Z" transform="translate(-1.06 -2)"/>
<rect x="17.94" y="7" width="2" height="2"/>
<rect x="12.94" y="7" width="2" height="2"/>
<rect x="22.94" y="7" width="2" height="2"/>
<path d="M8,30a1,1,0,0,1-.42-.09A1,1,0,0,1,7,29V25.74a8,8,0,0,1-1.28-15,1,1,0,0,1,.93,1.77l-.11.05A6,6,0,0,0,8.14,24,1,1,0,0,1,9,25V26.9l3.16-2.63A1,1,0,0,1,12.8,24H15a5.93,5.93,0,0,0,4.29-1.82,1,1,0,0,1,1.44,1.4h0A8,8,0,0,1,15,26H13.16L8.64,29.77A1,1,0,0,1,8,30Z" transform="translate(-1.06 -2)"/>
</g>
</svg>