<svg data-name="Layer 1" xmlns="http://www.w3.org/2000/svg" viewBox="0 0 26 26">
<path d="M13.25,6.88a4.39,4.39,0,0,1,2.35.27,4.31,4.31,0,0,1,2.7,3.63,4.28,4.28,0,0,1-2.09,4c-.18.11-.38.21-.54.29l-.13.07a2.15,2.15,0,0,0-.41.25.36.36,0,0,0-.14.15.66.66,0,0,0-.06.31v1.25a.6.6,0,0,1-.6.6h-.8a.6.6,0,0,1-.6-.6V15.86a2.47,2.47,0,0,1,1-2,5,5,0,0,1,.72-.44l.19-.1.38-.21a2.29,2.29,0,0,0,.88-.92,2.2,2.2,0,0,0,.24-1.21,2.15,2.15,0,0,0-.44-1.16,2.38,2.38,0,0,0-1-.78,2.59,2.59,0,0,0-1.29-.15,2.4,2.4,0,0,0-1.18.53,2.34,2.34,0,0,0-.45.5.75.75,0,0,1-.83.35L10.34,10A.53.53,0,0,1,10,9.23a4.39,4.39,0,0,1,3.25-2.35Z" transform="translate(-1 -1)"/>
<path d="M13.11,19.88a.5.5,0,0,1,.5-.5h.65a.5.5,0,0,1,.5.5v.64a.5.5,0,0,1-.5.5h-.65a.5.5,0,0,1-.5-.5Z" transform="translate(-1 -1)"/>
<path d="M14,1A13,13,0,1,0,27,14,13,13,0,0,0,14,1ZM3,14A11,11,0,1,1,14,25,11,11,0,0,1,3,14Z" transform="translate(-1 -1)"/>
</svg>