<svg id="Layer_1" data-name="Layer 1" xmlns="http://www.w3.org/2000/svg" viewBox="0 0 979.92 970.5"><path d="M723.5,985.2c-62.6,0-143.4-41.7-200.2-76.7-76-46.9-158-111.7-230.7-182.5l-.3-.3-23.1-23.1C198.4,629.9,133.6,548,86.7,471.9,51.7,415.2,10,334.3,10,271.7c0-67,47.9-138.1,68.5-165.6,16.1-21.4,72.2-91.4,119.9-91.4,19.6,0,40.7,12.8,68.4,41.6,24.5,25.4,48.1,57,63.5,79.1C351,165,370.2,196,384.2,222.6c22.8,43.2,25.4,61.7,25.4,71.9,0,20.5-10.7,38.3-31.9,52.9-13.9,9.6-30.6,16.8-46.8,23.8-10.9,4.7-28.3,12.2-34.9,17.5,2.3,9.8,12.4,33.5,39.8,73.7,25.5,37.4,58.5,78,88.2,108.6,30.6,29.8,71.1,62.8,108.6,88.2,40.2,27.4,63.8,37.5,73.7,39.8,5.3-6.6,12.8-24,17.5-34.9,7-16.2,14.2-32.9,23.8-46.8,14.6-21.1,32.4-31.9,52.9-31.9,10.2,0,28.7,2.6,71.9,25.4,26.7,14.1,57.7,33.2,87.2,54,22,15.4,53.6,39,79.1,63.5,28.8,27.7,41.6,48.8,41.6,68.4,0,47.7-69.9,103.9-91.4,119.9-27.2,20.7-98.4,68.6-165.4,68.6ZM332.7,685.1c69.8,68,148.1,130,220.6,174.7C623.6,903.1,685.6,928,723.5,928c33.7,0,81.7-20.6,128.5-55,20.5-15.1,39.2-31.9,52.5-47.4,12.6-14.5,17.1-24,18.3-27.8-4.9-10.4-33.7-43-100.9-89.4-26.4-18.2-53.7-34.9-76.8-47.1-29.1-15.3-41.2-17.9-44-18.4-1.1.7-4.2,3.4-9.1,11.5-5.4,9-10.6,21-15.6,32.6-6.2,14.3-12.5,29-20.4,40.9-12.7,19.3-28.3,29.2-46.4,29.2h-1c-8.8-.2-35.6-.8-108.3-50.3C460.2,679.5,416.6,644,383.7,612l-.5-.5c-32-32.9-67.5-76.4-94.8-116.6-49.5-72.7-50.1-99.5-50.3-108.3-.4-18.4,9.3-34.3,28.9-47.2,11.9-7.9,26.8-14.3,41.2-20.6,11.6-5,23.5-10.2,32.6-15.6,8.1-4.8,10.7-8,11.5-9.1-.4-2.8-3.1-14.9-18.4-44-12.2-23.1-28.9-50.4-47.1-76.8-46.4-67.3-79-96.1-89.4-100.9-3.8,1.2-13.3,5.8-27.8,18.3-15.4,13.4-32.3,32-47.4,52.5-34.5,46.8-55,94.8-55,128.5,0,37.8,24.9,99.8,68.2,170.2,44.7,72.5,106.7,150.9,174.7,220.6l22.6,22.6ZM673.8,479.5a21.08,21.08,0,0,1-20.7-17.4c-5.1-29.1-22-54.5-47.5-71.3-25.9-17.1-57.5-23.4-89-17.8a21,21,0,1,1-7.3-41.3c42.2-7.4,84.6,1.1,119.5,24.2,35.2,23.3,58.6,58.4,65.7,99.1a21,21,0,0,1-17,24.3c-1.3,0-2.5.2-3.7.2Zm126.4-54.3a21.08,21.08,0,0,1-20.7-17.4c-10-56.6-42.7-105.7-92-138.2-49.7-32.8-110.4-45-171-34.4a21,21,0,0,1-7.3-41.3c71.1-12.5,142.6,1.9,201.4,40.7,59.1,39,98.3,98,110.2,166a21,21,0,0,1-17,24.3,21.86,21.86,0,0,1-3.6.3ZM969,409.6a21.08,21.08,0,0,1-20.7-17.4c-17-96.5-72.7-180.3-156.9-235.8C706.9,100.6,603.8,79.9,501,98a21,21,0,0,1-7.3-41.3c113.3-20,227.3,3,320.8,64.7C908.4,183.4,970.6,277,989.6,385a21,21,0,0,1-17,24.3,21.86,21.86,0,0,1-3.6.3Z" transform="translate(-10 -14.7)"/></svg>