<svg data-name="Layer 1" xmlns="http://www.w3.org/2000/svg" viewBox="0 0 979.95 958.06"><path d="M612.6,30.6A33.08,33.08,0,0,0,577.7,23c-12,4.4-20.2,15.8-21.3,28.9l-8.2,140.9L372.3,369.7,158.3,344a32.56,32.56,0,0,0-26.7,55.7L288.8,557,16.3,927.2a33,33,0,0,0,2.7,42A32.44,32.44,0,0,0,42.5,979a29.7,29.7,0,0,0,18-5.5L446,714.8,604.4,873.2a32.7,32.7,0,0,0,55.7-26.3L638.8,637.2,814.6,461.4l144.2-7.1a31.76,31.76,0,0,0,28.9-20.8c4.9-12,1.6-25.7-7.6-34.9Zm-432,783.6L335.1,604,399,667.3ZM798.8,395.9a33.28,33.28,0,0,0-21.8,9.8l-196,196a32.58,32.58,0,0,0-9.3,26.8l13.7,133.8L244.5,419.9l136,16.4a33.74,33.74,0,0,0,27.3-9.3L604.4,230.4c5.5-5.5,9.3-13.1,9.3-21.3l4.4-80.3L881.3,392Z" transform="translate(-10.01 -20.94)"/></svg>