<svg id="Layer_1" data-name="Layer 1" xmlns="http://www.w3.org/2000/svg" viewBox="0 0 980 735.9"><path d="M974.6,355.8,824.2,136.3A30.75,30.75,0,0,0,798.9,123H612.5V53A52.92,52.92,0,0,0,559.7,0H52.8A53,53,0,0,0,0,53V591.8a53,53,0,0,0,52.8,53H99.6c16.1,52.5,64.4,91.1,122.1,91.1,58,0,106.5-38.9,122.3-91.9l236.8-.1h63.6c15.8,53,64.4,92,122.4,92S873.3,697,889.1,644h60.1a30.6,30.6,0,0,0,30.6-30.6l.2-240.2A30.61,30.61,0,0,0,974.6,355.8Zm-86.8-18.4H735.1V275.6H845.5ZM221.7,674.5a67.18,67.18,0,0,1-67-67.2c0-37.1,30.1-67.3,67-67.3s67,30.2,67,67.3A67.11,67.11,0,0,1,221.7,674.5Zm125.8-91.9C336,523.5,284,478.7,221.7,478.7c-62.6,0-114.7,45.2-125.9,104.7H61.3V61.2H551.2l-.9,521.3Zm419.3,91.9a67.18,67.18,0,0,1-67-67.2c0-37.1,30.1-67.3,67-67.3s67,30.2,67,67.3A67.18,67.18,0,0,1,766.8,674.5Zm125.8-91.9c-11.5-59.1-63.5-103.9-125.8-103.9S652.6,523.4,641,582.5H611.6l.8-398.3H782.9l20.6,30.1H673.8V398.6H918.7l-.2,183.9H892.6Z"/></svg>